<svg xmlns="http://www.w3.org/2000/svg">
<symbol viewBox="0 0 15 14" fill="none" id="icon_external_link">
<g clip-path="url(#clip0_143_756)">
<path d="M8.5 0C7.9477 0 7.5 0.44772 7.5 1C7.5 1.55228 7.9477 2 8.5 2H11.0858L4.79289 8.2929C4.40237 8.6834 4.40237 9.3166 4.79289 9.7071C5.18342 10.0976 5.81658 10.0976 6.20711 9.7071L12.5 3.41421V6C12.5 6.55228 12.9477 7 13.5 7C14.0523 7 14.5 6.55228 14.5 6V1C14.5 0.44772 14.0523 0 13.5 0H8.5Z" fill="white"/>
<path d="M2.5 2C1.39543 2 0.5 2.89543 0.5 4V12C0.5 13.1046 1.39543 14 2.5 14H10.5C11.6046 14 12.5 13.1046 12.5 12V9C12.5 8.4477 12.0523 8 11.5 8C10.9477 8 10.5 8.4477 10.5 9V12H2.5V4H5.5C6.05228 4 6.5 3.55228 6.5 3C6.5 2.44772 6.05228 2 5.5 2H2.5Z" fill="white"/>
</g>
<defs>
<clipPath id="clip0_143_756">
<rect fill="white" transform="translate(0.5)"/>
</clipPath>
</defs>
</symbol>
</svg>
