<svg width="474" height="390" viewBox="0 0 474 390" fill="none" xmlns="http://www.w3.org/2000/svg">
<g clip-path="url(#clip0_162_932)">
<path d="M237 361.39L24.3101 129.36L88.7601 19.79H385.24L449.69 129.36L237 361.39Z" fill="#E8EFFB"/>
<path d="M396.3 0.459991H77.6999L0.389893 131.89L237 390L473.61 131.89L396.3 0.459991ZM133.41 142.25L183.36 274.25L62.3599 142.25H133.41ZM299.24 142.25L237 306.75L174.76 142.25H299.24ZM176.33 103.58L204.53 39.13H269.47L297.67 103.58H176.33ZM340.59 142.25H411.64L290.64 274.25L340.59 142.25ZM412.09 103.58H339.88L311.68 39.13H374.18L412.09 103.58ZM99.8199 39.13H162.32L134.12 103.58H61.9099L99.8199 39.13Z" fill="#5180AA"/>
</g>
<defs>
<clipPath id="clip0_162_932">
<rect width="474" height="390" fill="white"/>
</clipPath>
</defs>
</svg>
